<?xml version="1.0" standalone="no"?>
<!DOCTYPE svg PUBLIC "-//W3C//DTD SVG 20010904//EN"
 "http://www.w3.org/TR/2001/REC-SVG-20010904/DTD/svg10.dtd">
<svg version="1.0" xmlns="http://www.w3.org/2000/svg"
 width="256.000000pt" height="256.000000pt" viewBox="0 0 256.000000 256.000000"
 preserveAspectRatio="xMidYMid meet">
<metadata>
Created by potrace 1.14, written by Peter Selinger 2001-2017
</metadata>
<g transform="translate(0.000000,256.000000) scale(0.100000,-0.100000)"
fill="#000000" stroke="none">
<path d="M1787 2549 c-50 -12 -135 -48 -172 -73 -29 -21 -43 -21 -697 -26
l-666 -5 -39 -31 c-21 -16 -47 -47 -57 -69 -18 -36 -19 -74 -19 -969 0 -512 3
-948 7 -968 4 -21 18 -51 33 -68 43 -52 78 -65 193 -70 l105 -5 2 -60 c4 -97
33 -149 105 -186 34 -18 72 -18 727 -19 733 0 724 -1 777 46 12 11 31 37 42
58 20 38 21 53 22 413 l0 374 -26 24 c-23 21 -26 33 -25 76 0 41 6 56 26 75
14 13 25 29 25 36 -1 18 -25 48 -39 48 -7 0 -11 23 -11 65 0 36 4 65 9 65 5 0
17 7 25 16 13 12 16 41 16 147 l0 132 45 28 c181 115 270 373 203 587 -51 163
-198 307 -358 350 -56 16 -202 20 -253 9z"/>
</g>
</svg>
